<svg xmlns="http://www.w3.org/2000/svg" viewBox="0 0 24 24" aria-hidden="true">
  <path fill="#181717" d="M12 .5C5.65.5.5 5.65.5 12c0 5.08 3.29 9.39 7.86 10.91.57.1.78-.25.78-.55v-1.95c-3.2.7-3.87-1.36-3.87-1.36-.52-1.31-1.28-1.66-1.28-1.66-1.04-.71.08-.69.08-.69 1.15.08 1.75 1.18 1.75 1.18 1.02 1.75 2.67 1.25 3.32.96.1-.74.4-1.25.73-1.54-2.55-.29-5.23-1.27-5.23-5.66 0-1.25.45-2.28 1.17-3.08-.12-.29-.5-1.46.11-3.03 0 0 .96-.31 3.15 1.18a10.9 10.9 0 0 1 5.73 0c2.19-1.49 3.14-1.18 3.14-1.18.62 1.57.24 2.74.12 3.03.73.8 1.17 1.83 1.17 3.08 0 4.4-2.69 5.36-5.26 5.65.41.36.78 1.06.78 2.14v3.17c0 .3.21.66.79.55A11.51 11.51 0 0 0 23.5 12C23.5 5.65 18.35.5 12 .5Z" />
</svg>
